<?xml version="1.0" standalone="yes"?>
<svg xmlns="http://www.w3.org/2000/svg" width="923" height="475">
<path style="fill:#ffffff; stroke:none;" d="M0 0L0 64L54 64L54 196L113 196L113 234L0 234L0 475L622 475C617.247 472.454 611.828 471.34 607 468.688C596.49 462.916 588.247 453.944 583.313 443C569.244 411.791 593.291 371.72 628 371C623.531 369.125 617.809 370 613 370L582 370C589.297 351.188 597.507 332.733 605 314C607.875 306.812 613.686 297.764 614.146 290C614.487 284.242 610.782 277.396 609.001 272C604.936 259.687 601.102 247.306 597 235C588.01 208.03 579.323 180.97 570.333 154C564.734 137.201 557.992 120.257 554 103L496 103L496 64L556 64C562.18 64 574.369 61.6736 579.722 65.0278C583.62 67.4699 584.642 74.927 586 79C590.221 91.6638 594.252 104.411 598.691 117C603.105 129.517 606.312 142.4 610.461 155C623.094 193.373 636.491 231.556 649 270C698.864 263.698 749.09 260.258 799 254.285C811.968 252.734 825.026 251.821 838 250.285C842.238 249.784 848.852 250.77 852.436 247.987C854.474 246.405 854.682 243.322 855.235 241C856.664 234.993 858.146 228.996 859.626 223C865.445 199.418 870.743 175.737 875.789 152C877.206 145.336 878.65 138.678 880 132C880.543 129.315 880.796 125.682 883.314 124.028C886.312 122.058 891.589 123 895 123L923 123L923 0L757 0C767.267 4.42886 779.451 4.63129 790 9.30865C823.898 24.3395 849.952 52.4269 860.974 88C864.64 99.831 866 111.673 866 124C866 204.036 786.002 264.546 709 242.573C660.649 228.775 623.96 185.136 619.17 135C614.469 85.8052 641.129 38.4239 684 14.7307C697.05 7.51837 712.914 1.31143 728 1C722.293 -1.39487 714.154 0 708 0L665 0L516 0L0 0z"/>
<path style="fill:#e03913; stroke:none;" d="M728 0.425171C708.515 3.07751 690.61 9.46017 674 20.054C661.161 28.2425 649.665 39.4883 641.026 52C602.957 107.129 615.379 186.246 671 224.961C683.702 233.802 697.983 240.205 713 243.87C726.672 247.207 741.977 248.392 756 246.715C774.602 244.49 791.971 238.481 808 228.796C820.354 221.331 831.319 211.424 840.113 200C882.435 145.018 871.69 62.1949 814 22.0394C801.298 13.1978 787.017 6.79507 772 3.12964C758.064 -0.272003 742.272 -1.51758 728 0.425171z"/>
<path style="fill:#823400; stroke:none;" d="M680.667 45.3333C680.222 45.7776 681.278 45.7223 681.333 45.6667C681.778 45.222 680.722 45.278 680.667 45.3333z"/>
<path style="fill:#5d2500; stroke:none;" d="M682 45C683.506 45.683 684.315 45.8259 686 46C684.494 45.3169 683.685 45.1741 682 45z"/>
<path style="fill:#bc4b00; stroke:none;" d="M686 45C687.248 45.6848 687.548 45.7488 689 46C687.752 45.3152 687.452 45.2512 686 45z"/>
<path style="fill:#7a3100; stroke:none;" d="M676.667 46.3333C676.222 46.7776 677.278 46.7223 677.333 46.6667C677.778 46.222 676.722 46.2779 676.667 46.3333z"/>
<path style="fill:#270f00; stroke:none;" d="M678 46L679 47L678 46z"/>
<path style="fill:#ffffff; stroke:none;" d="M679 46.5324C667.589 49.2465 660.885 62.9826 668.652 72.8148C673.403 78.829 681.891 80.4955 689 78.7592C698.641 76.4048 705.673 65.6547 700.821 56.0008C696.981 48.3601 687.087 44.6088 679 46.5324z"/>
<path style="fill:#361500; stroke:none;" d="M688.667 46.3333C688.222 46.7776 689.278 46.7223 689.333 46.6667C689.778 46.2221 688.722 46.2779 688.667 46.3333z"/>
<path style="fill:#bf4c00; stroke:none;" d="M690.667 46.3333C690.222 46.7776 691.278 46.7224 691.333 46.6667C691.778 46.222 690.722 46.2779 690.667 46.3333z"/>
<path style="fill:#983d00; stroke:none;" d="M674 47L675 48L674 47z"/>
<path style="fill:#421b00; stroke:none;" d="M675 47L676 48L675 47z"/>
<path style="fill:#5e2500; stroke:none;" d="M691.667 47.3333C691.222 47.7776 692.278 47.7224 692.333 47.6667C692.778 47.2221 691.722 47.2778 691.667 47.3333z"/>
<path style="fill:#3a1700; stroke:none;" d="M673 48L674 49L673 48z"/>
<path style="fill:#1a0b00; stroke:none;" d="M693 48L694 49L693 48z"/>
<path style="fill:#6e2c00; stroke:none;" d="M694 48L695 49L694 48z"/>
<path style="fill:#853400; stroke:none;" d="M671 49L672 50L671 49z"/>
<path style="fill:#1d0b00; stroke:none;" d="M672 49L673 50L672 49z"/>
<path style="fill:#301300; stroke:none;" d="M695 49L696 50L695 49z"/>
<path style="fill:#5d2600; stroke:none;" d="M670 50L671 51L670 50z"/>
<path style="fill:#1a0b00; stroke:none;" d="M696 50L697 51L696 50z"/>
<path style="fill:#562200; stroke:none;" d="M669 51L670 52L669 51z"/>
<path style="fill:#150900; stroke:none;" d="M697 51L698 52L697 51z"/>
<path style="fill:#592400; stroke:none;" d="M668 52L669 53L668 52z"/>
<path style="fill:#160900; stroke:none;" d="M698 52L699 53L698 52z"/>
<path style="fill:#7b3200; stroke:none;" d="M667 53L668 54L667 53z"/>
<path style="fill:#210d00; stroke:none;" d="M699 53L700 54L699 53z"/>
<path style="fill:#190a00; stroke:none;" d="M667 54L668 55L667 54z"/>
<path style="fill:#602700; stroke:none;" d="M700 54L701 55L700 54z"/>
<path style="fill:#5b2400; stroke:none;" d="M666 55L667 56L666 55z"/>
<path style="fill:#9b9492; stroke:none;" d="M666 56L667 57L666 56z"/>
<path style="fill:#451c00; stroke:none;" d="M701 56L702 57L701 56z"/>
<path style="fill:#321400; stroke:none;" d="M665 57L665 60C665.696 58.4463 665.696 58.5537 665 57z"/>
<path style="fill:#813400; stroke:none;" d="M702 58L703 59L702 58z"/>
<path style="fill:#200d00; stroke:none;" d="M702 59L702 67C703.161 64.2301 703.161 61.7698 702 59z"/>
<path style="fill:#2e2a2a; stroke:none;" d="M228 187C225.039 199.799 220.067 212.498 216 225C234.046 235.531 255.493 238 276 238C289.582 238 303.404 236.628 316 231.124C344.2 218.803 354.264 182.31 339.688 156C328.709 136.183 306.976 130.038 287 123.656C280.931 121.717 266.47 118.546 266.967 110.003C267.385 102.813 276.645 102.027 282 102.001C291.91 101.952 301.441 103.536 311 106.152C314.876 107.213 321.58 110.87 325.582 109.306C328.63 108.115 329.702 102.746 330.656 100C333.768 91.0396 337.503 82.1491 340 73C332.845 68.8394 325.023 66.088 317 64.1296C284.017 56.0791 230.484 55.2731 217.52 95C215.83 100.18 215.027 105.566 215.001 111C214.971 117.104 214.757 123.07 216.428 129C221.981 148.702 239.245 160.629 258 166.28C268.153 169.339 283.001 171.713 290.891 179.214C296.732 184.766 293.998 191.073 287 193.853C277.178 197.753 265.038 195.613 255 193.739C245.939 192.048 237.139 187.798 228 187z"/>
<path style="fill:#8e3900; stroke:none;" d="M664 60L664 65C664.83 62.9697 664.83 62.0304 664 60z"/>
<path style="fill:#da5700; stroke:none;" d="M703 61L703 65C703.71 63.2404 703.71 62.7595 703 61z"/>
<path style="fill:#2e2a2a; stroke:none;" d="M0 64L0 234L113 234L113 196L54 196L54 64L0 64M133 64L133 234L191 234L191 64L133 64M360 64L360 102L395 102L395 234L454 234L454 102L489 102L489 64L360 64M496 64L496 103L554 103C556.43 119.455 564.078 136.233 569.333 152C578.99 180.97 588.343 210.03 598 239C601.768 250.305 605.266 261.687 609.001 273C610.65 277.995 614.039 284.26 613.954 289.576C613.841 296.621 608.002 305.494 605.4 312C597.771 331.07 587.419 350.187 582 370L628 370C622.362 371.713 616.55 372.21 611 374.453C597.648 379.85 587.792 390.768 582.453 404C567.248 441.685 601.87 481.427 641 474.384C681.009 467.184 697.683 416.618 669.91 387.004C665.387 382.181 660.002 378.131 654 375.323C647.97 372.502 641.63 371.055 635 371C641.299 369.138 648.463 370 655 370L690 370L807 370C801.363 371.713 795.544 372.195 790 374.454C777.712 379.461 767.58 389.853 762.338 402C746.058 439.725 779.548 481.816 820 474.535C859.847 467.364 877.261 416.388 848.96 387.004C844.356 382.224 839.031 378.145 833 375.323C826.86 372.45 820.745 371.019 814 371C819.725 369.308 826.06 370 832 370L863 370L863 331L640 331C642.328 324.998 644.528 314.93 649.418 310.564C653.086 307.29 659.441 308.024 664 307.424C676.932 305.725 690.062 305.284 703 303.576C740.828 298.58 779.037 295.627 817 291.831C839.475 289.584 862.42 285.466 885 285C892.538 248.479 902.271 212.284 910.884 176C914.971 158.784 921.559 140.644 923 123L894 123C890.824 123 885.28 121.976 882.589 124.028C880.423 125.679 880.291 129.551 879.8 132C878.527 138.346 877.135 144.669 875.789 151C870.672 175.072 865.32 199.097 859.373 223C857.966 228.659 856.583 234.328 855.235 240C854.573 242.783 854.279 246.236 851.697 247.987C847.764 250.652 841.486 249.754 837 250.285C824.026 251.821 810.968 252.734 798 254.285C764.738 258.266 731.334 261.498 698 264.831C681.785 266.452 665.023 267.025 649 270C644.775 251.736 637.212 233.863 631.505 216C624.86 195.204 617.278 174.707 610.461 154C606.312 141.4 603.105 128.517 598.691 116C594.369 103.742 590.444 91.3307 586.333 79C585.041 75.1235 584.014 67.5022 580.49 65.0278C578.449 63.5948 575.349 64.0048 573 64L557 64L496 64z"/>
<path style="fill:#d9d2d2; stroke:none;" d="M665 65L666 66L665 65z"/>
<path style="fill:#3f1900; stroke:none;" d="M665.333 66.6667C665.278 66.7223 665.222 67.7778 665.667 67.3333C665.722 67.278 665.778 66.2221 665.333 66.6667z"/>
<path style="fill:#953c00; stroke:none;" d="M665 68L666 69L665 68z"/>
<path style="fill:#230e00; stroke:none;" d="M666 69L667 70L666 69z"/>
<path style="fill:#5c2500; stroke:none;" d="M701 69L702 70L701 69z"/>
<path style="fill:#7c3200; stroke:none;" d="M666 70L667 71L666 70z"/>
<path style="fill:#150800; stroke:none;" d="M700 70L701 71L700 70z"/>
<path style="fill:#3b1800; stroke:none;" d="M667 71L668 72L667 71z"/>
<path style="fill:#813400; stroke:none;" d="M700 71L701 72L700 71z"/>
<path style="fill:#3b1700; stroke:none;" d="M699 72L700 73L699 72z"/>
<path style="fill:#8d3800; stroke:none;" d="M668 73L669 74L668 73z"/>
<path style="fill:#2e1300; stroke:none;" d="M698 73L699 74L698 73z"/>
<path style="fill:#873600; stroke:none;" d="M669 74L670 75L669 74z"/>
<path style="fill:#311400; stroke:none;" d="M697 74L698 75L697 74z"/>
<path style="fill:#903a00; stroke:none;" d="M670 75L671 76L670 75z"/>
<path style="fill:#230e00; stroke:none;" d="M671 75L672 76L671 75z"/>
<path style="fill:#411a00; stroke:none;" d="M696 75L697 76L696 75z"/>
<path style="fill:#351500; stroke:none;" d="M672 76L673 77L672 76z"/>
<path style="fill:#813400; stroke:none;" d="M695 76L696 77L695 76z"/>
<path style="fill:#7f3300; stroke:none;" d="M673 77L674 78L673 77z"/>
<path style="fill:#150900; stroke:none;" d="M674 77L675 78L674 77z"/>
<path style="fill:#441b00; stroke:none;" d="M693 77L694 78L693 77z"/>
<path style="fill:#722e00; stroke:none;" d="M675 78L676 79L675 78z"/>
<path style="fill:#1f0c00; stroke:none;" d="M676 78L677 79L676 78z"/>
<path style="fill:#4f2000; stroke:none;" d="M690.667 78.3333C690.222 78.7776 691.278 78.7223 691.333 78.6667C691.778 78.222 690.722 78.278 690.667 78.3333z"/>
<path style="fill:#230e00; stroke:none;" d="M678 79C679.506 79.683 680.315 79.8259 682 80C680.494 79.3169 679.685 79.1741 678 79z"/>
<path style="fill:#200d00; stroke:none;" d="M685 79C686.506 79.683 687.315 79.8259 689 80C687.494 79.3169 686.685 79.1741 685 79z"/>
<path style="fill:#953c00; stroke:none;" d="M792 92C793.248 92.6848 793.548 92.7488 795 93C793.752 92.3152 793.452 92.2512 792 92z"/>
<path style="fill:#6b2b00; stroke:none;" d="M795 92C796.248 92.6849 796.548 92.7488 798 93C796.752 92.3152 796.452 92.2512 795 92z"/>
<path style="fill:#983d00; stroke:none;" d="M798 92C799.248 92.6849 799.548 92.7488 801 93C799.752 92.3152 799.452 92.2512 798 92z"/>
<path style="fill:#9e3f00; stroke:none;" d="M666 93C669.959 94.6611 674.74 94 679 94L702 94C698.041 92.3389 693.26 93 689 93L666 93z"/>
<path style="fill:#813400; stroke:none;" d="M786.667 93.3333C786.223 93.7775 787.278 93.7224 787.333 93.6667C787.778 93.222 786.722 93.2779 786.667 93.3333z"/>
<path style="fill:#1d0b00; stroke:none;" d="M788 93C789.248 93.6848 789.549 93.7488 791 94C789.752 93.3152 789.452 93.2512 788 93z"/>
<path style="fill:#5f5551; stroke:none;" d="M791 93L792 94L791 93z"/>
<path style="fill:#ffffff; stroke:none;" d="M763 112L763 96L730 96L730 180L765 180L765 149C765 142.3 764.486 135.196 767.529 129C771.927 120.046 783.232 112.659 791.786 121.214C796.907 126.334 796 133.366 796 140L796 180L831 180L831 163C831 141.032 835.595 105.975 810 95.483C806.605 94.0915 802.639 93.5052 799 93.1705C794.432 92.7505 789.391 93.4844 785 94.7847C779.927 96.287 774.942 99.3079 771.326 103.174C768.403 106.298 766.825 109.907 763 112z"/>
<path style="fill:#9b9492; stroke:none;" d="M801 93L802 94L801 93z"/>
<path style="fill:#311400; stroke:none;" d="M802.667 93.3333C802.222 93.7776 803.278 93.7224 803.333 93.6667C803.778 93.222 802.722 93.2779 802.667 93.3333z"/>
<path style="fill:#9c3e00; stroke:none;" d="M804 93C805.248 93.6848 805.548 93.7488 807 94C805.752 93.3152 805.452 93.2512 804 93z"/>
<path style="fill:#662900; stroke:none;" d="M665 94L665 148C666.661 144.041 666 139.26 666 135L666 109C666 104.191 666.875 98.4687 665 94z"/>
<path style="fill:#ffffff; stroke:none;" d="M666 94L666 139C666 150.099 666.125 161.853 673.39 170.996C681.157 180.771 693.395 182.179 705 180.245C708.706 179.628 714.688 179.019 716.972 175.581C720.076 170.908 717.222 159.134 716 154C710.905 154.601 706.021 154.96 702.938 149.945C700.152 145.413 701 139.071 701 134C701 121.188 699.026 106.494 702 94L666 94z"/>
<path style="fill:#cb250a; stroke:none;" d="M730 94C733.699 95.552 738.017 95 742 95L763 95C759.301 93.4479 754.983 94 751 94L730 94z"/>
<path style="fill:#522100; stroke:none;" d="M783 94C784.248 94.6848 784.549 94.7488 786 95C784.752 94.3152 784.452 94.2512 783 94z"/>
<path style="fill:#742f00; stroke:none;" d="M807.667 94.3333C807.223 94.7775 808.278 94.7224 808.333 94.6667C808.778 94.222 807.722 94.2779 807.667 94.3333z"/>
<path style="fill:#d9d3d2; stroke:none;" d="M701 95L702 96L701 95z"/>
<path style="fill:#5c2500; stroke:none;" d="M729 95L729 180C731.395 174.293 730 166.154 730 160L730 117C730 110.314 731.599 101.194 729 95z"/>
<path style="fill:#210d00; stroke:none;" d="M730 95C733.699 96.552 738.017 96 742 96L763 96L763 112C765.087 107.026 764 100.362 764 95L730 95z"/>
<path style="fill:#6b2b00; stroke:none;" d="M781 95L782 96L781 95z"/>
<path style="fill:#240e00; stroke:none;" d="M782 95L783 96L782 95z"/>
<path style="fill:#481d00; stroke:none;" d="M810 95L811 96L810 95z"/>
<path style="fill:#9b9392; stroke:none;" d="M701 96L701 147C702.661 143.041 702 138.26 702 134L702 110C702 105.465 702.769 100.215 701 96z"/>
<path style="fill:#6c2a00; stroke:none;" d="M779 96L780 97L779 96z"/>
<path style="fill:#5e5551; stroke:none;" d="M780 96L781 97L780 96z"/>
<path style="fill:#4b1d00; stroke:none;" d="M812 96L813 97L812 96z"/>
<path style="fill:#923a00; stroke:none;" d="M777 97L778 98L777 97z"/>
<path style="fill:#1e0c00; stroke:none;" d="M778 97L779 98L778 97z"/>
<path style="fill:#6c2c00; stroke:none;" d="M814 97L815 98L814 97z"/>
<path style="fill:#481d00; stroke:none;" d="M776 98L777 99L776 98z"/>
<path style="fill:#2c1000; stroke:none;" d="M815 98L816 99L815 98z"/>
<path style="fill:#2d1200; stroke:none;" d="M775 99L776 100L775 99z"/>
<path style="fill:#160900; stroke:none;" d="M816 99L817 100L816 99z"/>
<path style="fill:#8f3900; stroke:none;" d="M817 99L818 100L817 99z"/>
<path style="fill:#823400; stroke:none;" d="M773 100L774 101L773 100z"/>
<path style="fill:#1b0b00; stroke:none;" d="M774 100L775 101L774 100z"/>
<path style="fill:#9b9391; stroke:none;" d="M817 100L818 101L817 100z"/>
<path style="fill:#7e3300; stroke:none;" d="M818 100L819 101L818 100z"/>
<path style="fill:#7f3300; stroke:none;" d="M772 101L773 102L772 101z"/>
<path style="fill:#221710; stroke:none;" d="M818 101L819 102L818 101z"/>
<path style="fill:#712d00; stroke:none;" d="M819 101L820 102L819 101z"/>
<path style="fill:#7b3100; stroke:none;" d="M771 102L772 103L771 102z"/>
<path style="fill:#403730; stroke:none;" d="M820.333 102.667C820.278 102.722 820.222 103.778 820.667 103.333C820.722 103.278 820.778 102.222 820.333 102.667z"/>
<path style="fill:#8d3900; stroke:none;" d="M770 103L771 104L770 103z"/>
<path style="fill:#893700; stroke:none;" d="M821 103L822 104L821 103z"/>
<path style="fill:#403630; stroke:none;" d="M821 104L822 105L821 104z"/>
<path style="fill:#2f1300; stroke:none;" d="M769 105L770 106L769 105z"/>
<path style="fill:#1f0d00; stroke:none;" d="M822 105L823 106L822 105z"/>
<path style="fill:#441c00; stroke:none;" d="M768 106L769 107L768 106z"/>
<path style="fill:#5d2500; stroke:none;" d="M823 106L824 107L823 106z"/>
<path style="fill:#873600; stroke:none;" d="M767 107L768 108L767 107z"/>
<path style="fill:#8e3800; stroke:none;" d="M824 107L825 108L824 107z"/>
<path style="fill:#1c0b00; stroke:none;" d="M767 108L768 109L767 108z"/>
<path style="fill:#301300; stroke:none;" d="M824 108L825 109L824 108z"/>
<path style="fill:#471c00; stroke:none;" d="M766 109L767 110L766 109z"/>
<path style="fill:#403630; stroke:none;" d="M825.333 109.667C825.278 109.722 825.222 110.778 825.667 110.333C825.722 110.278 825.778 109.222 825.333 109.667z"/>
<path style="fill:#963c00; stroke:none;" d="M764 111L765 112L764 111z"/>
<path style="fill:#401900; stroke:none;" d="M765 111L766 112L765 111z"/>
<path style="fill:#602600; stroke:none;" d="M826 111L827 112L826 111z"/>
<path style="fill:#150800; stroke:none;" d="M826 112L827 113L826 112z"/>
<path style="fill:#833500; stroke:none;" d="M827 113L828 114L827 113z"/>
<path style="fill:#371600; stroke:none;" d="M827 114L828 115L827 114z"/>
<path style="fill:#2d1200; stroke:none;" d="M828.333 116.667C828.278 116.722 828.222 117.778 828.667 117.333C828.722 117.278 828.778 116.222 828.333 116.667z"/>
<path style="fill:#2a1100; stroke:none;" d="M780 117C782.331 117.985 784.457 117.981 787 118C784.668 117.015 782.543 117.019 780 117z"/>
<path style="fill:#1e0c00; stroke:none;" d="M777 118L778 119L777 118z"/>
<path style="fill:#a64300; stroke:none;" d="M778.667 118.333C778.223 118.777 779.278 118.722 779.333 118.667C779.778 118.222 778.722 118.278 778.667 118.333z"/>
<path style="fill:#592400; stroke:none;" d="M787.667 118.333C787.222 118.778 788.278 118.722 788.333 118.667C788.778 118.222 787.722 118.278 787.667 118.333z"/>
<path style="fill:#7b3100; stroke:none;" d="M829 118L829 121C829.696 119.446 829.696 119.554 829 118z"/>
<path style="fill:#250e00; stroke:none;" d="M775 119L776 120L775 119z"/>
<path style="fill:#411a00; stroke:none;" d="M790 119L791 120L790 119z"/>
<path style="fill:#bab3b2; stroke:none;" d="M773 120L774 121L773 120z"/>
<path style="fill:#602600; stroke:none;" d="M774 120L775 121L774 120z"/>
<path style="fill:#532000; stroke:none;" d="M791 120L792 121L791 120z"/>
<path style="fill:#7d7571; stroke:none;" d="M772 121L773 122L772 121z"/>
<path style="fill:#8a3800; stroke:none;" d="M773 121L774 122L773 121z"/>
<path style="fill:#4e1f00; stroke:none;" d="M792 121L793 122L792 121z"/>
<path style="fill:#bab3b2; stroke:none;" d="M829 121L830 122L829 121z"/>
<path style="fill:#ba4b00; stroke:none;" d="M830 121L830 124C830.696 122.446 830.696 122.554 830 121z"/>
<path style="fill:#5f5551; stroke:none;" d="M771 122L772 123L771 122z"/>
<path style="fill:#200d00; stroke:none;" d="M793 122L794 123L793 122z"/>
<path style="fill:#5e5650; stroke:none;" d="M770 123L771 124L770 123z"/>
<path style="fill:#953c00; stroke:none;" d="M771 123L772 124L771 123z"/>
<path style="fill:#903a00; stroke:none;" d="M793 123L794 124L793 123z"/>
<path style="fill:#6f2d00; stroke:none;" d="M770 124L771 125L770 124z"/>
<path style="fill:#2e1300; stroke:none;" d="M794 124L795 125L794 124z"/>
<path style="fill:#240f00; stroke:none;" d="M830 124L830 128C830.71 126.24 830.71 125.76 830 124z"/>
<path style="fill:#3e1900; stroke:none;" d="M769 125L770 126L769 125z"/>
<path style="fill:#bc4b00; stroke:none;" d="M794.333 125.667C794.278 125.722 794.222 126.778 794.667 126.333C794.722 126.278 794.778 125.222 794.333 125.667z"/>
<path style="fill:#9b9492; stroke:none;" d="M795 126L796 127L795 126z"/>
<path style="fill:#672900; stroke:none;" d="M768 127L769 128L768 127z"/>
<path style="fill:#6a2b00; stroke:none;" d="M795 127L795 132C795.83 129.97 795.83 129.03 795 127z"/>
<path style="fill:#ffffff; stroke:none;" d="M922 127C919.922 142.43 915.103 157.889 911.374 173C904.81 199.601 898.477 226.295 892.349 253C889.92 263.583 886.449 274.241 885 285C862.132 285.189 838.755 289.556 816 291.831C777.666 295.664 739.256 299.137 701 303.715C688.378 305.225 675.598 305.769 663 307.424C658.838 307.971 652.938 307.292 649.418 309.938C644.432 313.687 641.593 325.175 640 331L863 331L863 370L814 370C818.656 371.972 824.131 372.195 829 374.065C839.65 378.155 849.216 386.383 855.289 396C874.006 425.638 855.26 468.793 820 474C828.357 477.507 841.94 475 851 475L923 475L923 229L923 158C923 148.94 925.507 135.357 922 127z"/>
<path style="fill:#140800; stroke:none;" d="M767 128L768 129L767 128z"/>
<path style="fill:#7d7571; stroke:none;" d="M830 128L831 129L830 128z"/>
<path style="fill:#5e2500; stroke:none;" d="M767 129L768 130L767 129z"/>
<path style="fill:#722e00; stroke:none;" d="M831 129L831 180C832.661 176.041 832 171.26 832 167L832 143C832 138.465 832.769 133.215 831 129z"/>
<path style="fill:#9c9491; stroke:none;" d="M766 130L767 131L766 130z"/>
<path style="fill:#572300; stroke:none;" d="M766.333 131.667C766.278 131.722 766.222 132.778 766.667 132.333C766.722 132.278 766.778 131.222 766.333 131.667z"/>
<path style="fill:#bb4b00; stroke:none;" d="M795 132L795 181C796.552 177.301 796 172.983 796 169L796 146C796 141.465 796.769 136.215 795 132z"/>
<path style="fill:#c34e00; stroke:none;" d="M766.333 133.667C766.278 133.722 766.222 134.778 766.667 134.333C766.722 134.278 766.778 133.222 766.333 133.667z"/>
<path style="fill:#bab3b2; stroke:none;" d="M765 135L766 136L765 135z"/>
<path style="fill:#180a00; stroke:none;" d="M765 136L765 180C766.552 176.301 766 171.983 766 168L766 148C766 144.017 766.552 139.699 765 136z"/>
<path style="fill:#b74a00; stroke:none;" d="M665 148L665 153C665.83 150.97 665.83 150.03 665 148z"/>
<path style="fill:#6f2c00; stroke:none;" d="M702 149L703 150L702 149z"/>
<path style="fill:#190a00; stroke:none;" d="M702 150L703 151L702 150z"/>
<path style="fill:#411a00; stroke:none;" d="M703 151L704 152L703 151z"/>
<path style="fill:#d9d3d2; stroke:none;" d="M666 152L667 153L666 152z"/>
<path style="fill:#421a00; stroke:none;" d="M704 152L705 153L704 152z"/>
<path style="fill:#8e3900; stroke:none;" d="M716 152L717 153L716 152z"/>
<path style="fill:#7c7471; stroke:none;" d="M666 153L667 154L666 153z"/>
<path style="fill:#270f00; stroke:none;" d="M705 153L706 154L705 153z"/>
<path style="fill:#6b2b00; stroke:none;" d="M706 153L707 154L706 153z"/>
<path style="fill:#592400; stroke:none;" d="M713.667 153.333C713.222 153.778 714.278 153.722 714.333 153.667C714.778 153.222 713.722 153.278 713.667 153.333z"/>
<path style="fill:#180900; stroke:none;" d="M715 153L716 156C716.685 154.752 716.749 154.452 717 153L715 153z"/>
<path style="fill:#4f1f00; stroke:none;" d="M666.333 154.667C666.278 154.722 666.222 155.778 666.667 155.333C666.722 155.278 666.778 154.222 666.333 154.667z"/>
<path style="fill:#230e00; stroke:none;" d="M708 154C709.506 154.683 710.315 154.826 712 155C710.494 154.317 709.685 154.174 708 154z"/>
<path style="fill:#bab3b1; stroke:none;" d="M712 154L713 155L712 154z"/>
<path style="fill:#943b00; stroke:none;" d="M666.333 156.667C666.278 156.722 666.222 157.778 666.667 157.333C666.722 157.278 666.778 156.222 666.333 156.667z"/>
<path style="fill:#692a00; stroke:none;" d="M717 157L717 162C717.83 159.97 717.83 159.03 717 157z"/>
<path style="fill:#5f2600; stroke:none;" d="M667.333 159.667C667.278 159.722 667.222 160.778 667.667 160.333C667.722 160.278 667.778 159.222 667.333 159.667z"/>
<path style="fill:#1b0b00; stroke:none;" d="M668 162L669 163L668 162z"/>
<path style="fill:#481d00; stroke:none;" d="M717 162L717 166C717.71 164.24 717.71 163.759 717 162z"/>
<path style="fill:#722d00; stroke:none;" d="M668 163L669 164L668 163z"/>
<path style="fill:#5e5550; stroke:none;" d="M669 164L670 165L669 164z"/>
<path style="fill:#522000; stroke:none;" d="M669 165L670 166L669 165z"/>
<path style="fill:#dad3d2; stroke:none;" d="M670 166L671 167L670 166z"/>
<path style="fill:#592400; stroke:none;" d="M670 167L671 168L670 167z"/>
<path style="fill:#9f4000; stroke:none;" d="M718 167L718 174C719.059 171.466 719.059 169.534 718 167z"/>
<path style="fill:#140800; stroke:none;" d="M671 168L672 169L671 168z"/>
<path style="fill:#893700; stroke:none;" d="M671 169L672 170L671 169z"/>
<path style="fill:#4a1d00; stroke:none;" d="M672 170L673 171L672 170z"/>
<path style="fill:#271000; stroke:none;" d="M673 171L674 172L673 171z"/>
<path style="fill:#230e00; stroke:none;" d="M674 172L675 173L674 172z"/>
<path style="fill:#1e0c00; stroke:none;" d="M675 173L676 174L675 173z"/>
<path style="fill:#1f0d00; stroke:none;" d="M676 174L677 175L676 174z"/>
<path style="fill:#5b2500; stroke:none;" d="M718.333 174.667C718.278 174.722 718.222 175.778 718.667 175.333C718.722 175.278 718.778 174.222 718.333 174.667z"/>
<path style="fill:#311400; stroke:none;" d="M677 175L678 176L677 175z"/>
<path style="fill:#662900; stroke:none;" d="M678 176L679 177L678 176z"/>
<path style="fill:#692a00; stroke:none;" d="M717 176L718 177L717 176z"/>
<path style="fill:#953b00; stroke:none;" d="M679 177L680 178L679 177z"/>
<path style="fill:#3d1900; stroke:none;" d="M680 177L681 178L680 177z"/>
<path style="fill:#451c00; stroke:none;" d="M715 177L716 178L715 177z"/>
<path style="fill:#7c3100; stroke:none;" d="M681 178L682 179L681 178z"/>
<path style="fill:#210e00; stroke:none;" d="M682 178L683 179L682 178z"/>
<path style="fill:#4b1f00; stroke:none;" d="M712.667 178.333C712.222 178.778 713.278 178.722 713.333 178.667C713.778 178.222 712.722 178.278 712.667 178.333z"/>
<path style="fill:#481c00; stroke:none;" d="M683.667 179.333C683.222 179.778 684.278 179.722 684.333 179.667C684.778 179.222 683.722 179.278 683.667 179.333z"/>
<path style="fill:#4f1f00; stroke:none;" d="M709 179C710.248 179.685 710.548 179.749 712 180C710.752 179.315 710.452 179.251 709 179z"/>
<path style="fill:#4d1f00; stroke:none;" d="M686 180C687.248 180.685 687.548 180.749 689 181C687.752 180.315 687.451 180.251 686 180z"/>
<path style="fill:#bab3b1; stroke:none;" d="M689 180L690 181L689 180z"/>
<path style="fill:#dad3d2; stroke:none;" d="M703.667 180.333C703.222 180.778 704.278 180.722 704.333 180.667C704.778 180.222 703.722 180.278 703.667 180.333z"/>
<path style="fill:#4d1e00; stroke:none;" d="M705.667 180.333C705.223 180.777 706.278 180.722 706.333 180.667C706.778 180.222 705.722 180.278 705.667 180.333z"/>
<path style="fill:#a14000; stroke:none;" d="M707.667 180.333C707.223 180.777 708.277 180.722 708.333 180.667C708.778 180.222 707.722 180.278 707.667 180.333z"/>
<path style="fill:#8e3900; stroke:none;" d="M730 180C733.959 181.661 738.74 181 743 181L766 181C762.041 179.339 757.26 180 753 180L730 180M796 180C799.959 181.661 804.74 181 809 181L832 181C828.041 179.339 823.26 180 819 180L796 180z"/>
<path style="fill:#672900; stroke:none;" d="M691 181C692.248 181.685 692.548 181.749 694 182C692.752 181.315 692.452 181.251 691 181z"/>
<path style="fill:#341500; stroke:none;" d="M694 181C695.769 181.779 697.036 181.912 699 182C697.231 181.221 695.964 181.088 694 181z"/>
<path style="fill:#652800; stroke:none;" d="M699 181C700.248 181.685 700.549 181.749 702 182C700.752 181.315 700.452 181.251 699 181z"/>
<path style="fill:#ca5100; stroke:none;" d="M702 181C703.506 181.683 704.315 181.826 706 182C704.494 181.317 703.685 181.174 702 181z"/>
<path style="fill:#2e2a2a; stroke:none;" d="M176 311L443 311L518 311L539 311C541.869 311 545.924 311.693 548.582 310.397C551.637 308.906 552.631 303.872 553.85 301C557.776 291.751 560.848 282.172 565 273L282 273L217 273L200 273C197.686 273.005 194.651 272.598 192.649 274.028C189.652 276.168 188.391 281.752 186.999 285C183.301 293.63 179.029 302.103 176 311z"/>
<path style="fill:#040303; stroke:none;" d="M563.333 275.667C563.278 275.722 563.222 276.778 563.667 276.333C563.722 276.278 563.778 275.222 563.333 275.667M561.333 280.667C561.278 280.722 561.222 281.778 561.667 281.333C561.722 281.278 561.778 280.222 561.333 280.667z"/>
<path style="fill:#141414; stroke:none;" d="M559.333 285.667C559.278 285.722 559.222 286.778 559.667 286.333C559.722 286.278 559.778 285.222 559.333 285.667M557.333 290.667C557.278 290.722 557.222 291.778 557.667 291.333C557.722 291.278 557.778 290.222 557.333 290.667z"/>
<path style="fill:#999999; stroke:none;" d="M553 301L554 302L553 301M551 306L552 307L551 306z"/>
<path style="fill:#2e2a2a; stroke:none;" d="M75 367L421 367L498 367L518 367C520.578 366.999 524.219 367.566 526.451 365.972C529.187 364.017 530.211 358.975 531.4 356C534.977 347.059 539.041 338.161 542 329L199 329L121 329L100 329C97.4783 329.001 93.8644 328.424 91.6991 330.028C88.7584 332.205 87.5623 337.78 86.1397 341C82.3313 349.62 78.4097 358.211 75 367z"/>
<path style="fill:#080707; stroke:none;" d="M540.333 332.667C540.278 332.722 540.222 333.778 540.667 333.333C540.722 333.278 540.778 332.222 540.333 332.667M538.333 337.667C538.278 337.722 538.222 338.778 538.667 338.333C538.722 338.278 538.778 337.222 538.333 337.667z"/>
<path style="fill:#070606; stroke:none;" d="M536.333 342.667C536.278 342.722 536.222 343.778 536.667 343.333C536.722 343.278 536.778 342.222 536.333 342.667M534.333 347.667C534.278 347.722 534.222 348.778 534.667 348.333C534.722 348.278 534.778 347.222 534.333 347.667M532.333 352.667C532.278 352.722 532.222 353.778 532.667 353.333C532.722 353.278 532.778 352.222 532.333 352.667z"/>
<path style="fill:#060505; stroke:none;" d="M530.333 357.667C530.278 357.722 530.222 358.778 530.667 358.333C530.722 358.278 530.778 357.222 530.333 357.667M528.333 362.667C528.278 362.722 528.222 363.778 528.667 363.333C528.722 363.278 528.778 362.222 528.333 362.667z"/>
<path style="fill:#ffffff; stroke:none;" d="M635 370C639.666 372.013 645.141 372.215 650 374.066C660.609 378.106 670.182 386.322 676.073 396C693.888 425.267 676.681 470.797 640 474C644.72 475.981 650.92 475 656 475L688 475L801 475C796.254 472.42 790.808 471.327 786 468.687C776.049 463.222 767.661 454.358 762.901 444C748.537 412.739 771.501 371.737 807 371C802.031 368.915 795.35 370 790 370L756 370L635 370z"/>
<path style="fill:#2e2a2a; stroke:none;" d="M274 420L439 420L485 420C490.467 420 499.604 421.755 504.61 419.397C508.171 417.718 509.091 412.337 510.275 409C513.393 400.209 518.86 391.299 520 382L353 382L309 382C304.202 382 295.573 380.355 291.39 383.028C288.054 385.16 286.764 390.561 285.281 394C281.54 402.67 277.583 411.266 274 420z"/>
<path style="fill:#050404; stroke:none;" d="M520.333 382.667C520.278 382.722 520.222 383.778 520.667 383.333C520.722 383.278 520.778 382.222 520.333 382.667z"/>
<path style="fill:#040404; stroke:none;" d="M518.333 387.667C518.278 387.722 518.222 388.778 518.667 388.333C518.722 388.278 518.778 387.222 518.333 387.667z"/>
<path style="fill:#040303; stroke:none;" d="M516.333 392.667C516.278 392.722 516.222 393.778 516.667 393.333C516.722 393.278 516.778 392.222 516.333 392.667M514.333 397.667C514.278 397.722 514.222 398.778 514.667 398.333C514.722 398.278 514.778 397.222 514.333 397.667z"/>
<path style="fill:#141414; stroke:none;" d="M512.333 402.667C512.278 402.722 512.222 403.778 512.667 403.333C512.722 403.278 512.778 402.222 512.333 402.667M510.333 407.667C510.278 407.722 510.222 408.778 510.667 408.333C510.722 408.278 510.778 407.222 510.333 407.667z"/>
<path style="fill:#ffffff; stroke:none;" d="M629 409.537C611.542 413.572 618.301 440.005 635.999 435.581C652.467 431.465 645.422 405.741 629 409.537M808 409.537C790.461 413.586 797.329 439.998 814.999 435.581C831.235 431.523 824.399 405.751 808 409.537z"/>
<path style="fill:#999999; stroke:none;" d="M506 418L507 419L506 418z"/>
</svg>
